HIERARCHY
ROOT Hips
{
	OFFSET 0.00000 0.00000 0.00000
	CHANNELS 6 Xposition Yposition Zposition Yrotation Zrotation Xrotation 
	JOINT Lumbar
	{
		OFFSET 0 0 0
		CHANNELS 3 Zrotation Xrotation Yrotation
		JOINT Neck
		{
			OFFSET 0.00 0.2701 0.00
			CHANNELS 3 Zrotation Xrotation Yrotation
			End Site
			{
				OFFSET 0.00 0.1379 0.00
			}
		}
		JOINT RightShoulder
		{
			OFFSET 0.0119 0.2289 0.1181
			CHANNELS 3 Zrotation Xrotation Yrotation
			JOINT RightElbow
			{
				OFFSET 0.00 -0.1475 0.00
				CHANNELS 2 Zrotation Yrotation
				JOINT RightWrist
				{
					OFFSET 0.00 -0.1605 0.00
					CHANNELS 2 Zrotation Xrotation
					End Site
					{
						OFFSET 0.0040 -0.1068 0.0006
					}
				}
			}
		}
		JOINT LeftShoulder
		{
			OFFSET 0.0119 0.2289 -0.1181
			CHANNELS 3 Zrotation Xrotation Yrotation
			JOINT LeftElbow
			{
				OFFSET 0.00 -0.1475 0.00
				CHANNELS 2 Zrotation Yrotation
				JOINT LeftWrist
				{
					OFFSET 0.00 -0.1605 0.00
					CHANNELS 2 Zrotation Xrotation
					End Site
					{
						OFFSET 0.0040 -0.1068 -0.0006
					}
				}
			}
		}
	}
	JOINT RightHip
	{
		OFFSET 0.0316 -0.0424 0.0458
		CHANNELS 3 Zrotation Xrotation Yrotation
		JOINT RightKnee
		{
			OFFSET 0.00 -0.2438 0.00
			CHANNELS 1 Zrotation
			JOINT RightAnkle
			{
				OFFSET 0.00 -0.2449 0.00
				CHANNELS 3 Zrotation Xrotation Yrotation
				End Site
				{
					OFFSET 0.1237 -0.0542 0.0051
				}
			}
		}
	}
	JOINT LeftHip
	{
		OFFSET 0.0316 -0.0424 -0.0458
		CHANNELS 3 Zrotation Xrotation Yrotation
		JOINT LeftKnee
		{
			OFFSET 0.00 -0.2438 0.00
			CHANNELS 1 Zrotation
			JOINT LeftAnkle
			{
				OFFSET 0.00 -0.2449 0.00
				CHANNELS 3 Zrotation Xrotation Yrotation
				End Site
				{
					OFFSET 0.1237 -0.0542 -0.0051
				}
			}
		}
	}
}
MOTION
Frames: 33
Frame Time: 0.02
-0.19992 -0.0554 0.18584 20.60197 -16.69535 -2.56595 38.45746 2.18606 -7.3062 1.01685 -7.06599 -0.83079 67.89469 11.04507 29.01295 127.77793 104.80995 -44.28462 -5.97772 -43.30404 52.97011 -40.28012 99.37827 -106.45306 -20.76114 8.55058 29.4082 3.08543 -9.75877 -25.23482 -5.76533 -2.49441 -1.89124 56.83651 8.06352 0.74966 -47.9139 -11.47686 4.78571 3.45298
-0.20127 -0.05561 0.18696 20.81463 -17.24435 -2.91105 38.57619 2.39912 -7.79209 1.92811 -7.89786 -0.83079 67.80632 11.06983 28.43567 128.16298 103.9298 -42.35915 -5.95894 -43.64563 52.93512 -40.42591 99.38124 -110.60923 -22.54295 9.08804 30.16283 3.46832 -9.60164 -25.15937 -5.78113 -2.54511 -1.91606 57.71338 8.0035 0.01871 -47.8442 -11.59802 4.80245 3.47005
-0.20269 -0.05593 0.18811 21.06227 -17.84019 -3.29463 38.68155 2.66969 -8.15908 2.99086 -8.7151 -0.83079 67.63846 11.0525 27.92808 128.62901 102.95875 -40.33954 -5.94205 -43.78135 52.97407 -40.7795 99.31707 -116.02256 -24.95154 9.77114 30.98363 3.89307 -9.3925 -25.10073 -5.79559 -2.60837 -1.94638 58.69698 7.88371 -0.90292 -47.83376 -11.74295 4.82941 3.49403
-0.20407 -0.0562 0.18925 21.29527 -18.41474 -3.66192 38.7963 2.90978 -8.56626 3.9727 -9.51161 -0.83079 67.48798 11.05609 27.37819 129.07295 102.04391 -38.34756 -5.92961 -43.99962 52.98628 -41.03834 99.29087 -120.49052 -26.89091 10.34738 31.77274 4.29382 -9.23311 -25.035 -5.81046 -2.66294 -1.97272 59.63112 7.79409 -1.73076 -47.79669 -11.87495 4.85129 3.5145
-0.20548 -0.05646 0.19038 21.52655 -18.99312 -4.02515 38.89812 3.16921 -9.0368 5.00842 -10.43192 -0.83079 67.41666 11.05541 26.87437 129.45929 101.03477 -36.40424 -5.8908 -44.26869 52.96999 -41.29812 99.23456 -126.54207 -29.61479 11.09664 32.57299 4.7169 -8.95876 -24.96658 -5.82634 -2.73094 -2.00579 60.5754 7.69169 -2.58701 -47.75894 -12.01653 4.87469 3.5364
-0.20685 -0.05678 0.19154 21.76779 -19.57308 -4.40578 39.0233 3.40154 -9.3451 5.96679 -11.08638 -0.83079 67.15996 11.05261 26.28939 129.98145 100.23894 -34.35374 -5.91343 -44.38255 53.02957 -41.60406 99.22475 -129.62106 -30.8655 11.52253 33.36398 5.10315 -8.91305 -24.90796 -5.83974 -2.77361 -2.02595 61.5213 7.6023 -3.42966 -47.7364 -12.14337 4.89741 3.55696
-0.20809 -0.05725 0.19277 22.03457 -20.14693 -4.82268 39.21608 3.54603 -9.23594 6.67382 -11.02661 -0.83079 66.43085 11.05094 25.47981 130.87887 99.72289 -31.90413 -6.04839 -44.10326 53.29193 -42.00493 99.35697 -123.82369 -27.71696 10.98444 34.11414 5.37428 -9.51521 -24.87142 -5.84641 -2.74326 -2.00913 62.44848 7.55657 -4.19259 -47.74225 -12.22616 4.91644 3.57272
-0.20929 -0.05778 0.19403 22.30845 -20.71984 -5.25598 39.4326 3.66088 -8.96667 7.29736 -10.69561 -0.83079 65.51468 11.04861 24.58352 131.90564 99.48259 -29.37747 -6.25498 -43.67644 53.62645 -42.44266 99.53875 -115.05323 -23.09468 10.12253 34.85166 5.60722 -10.3494 -24.84438 -5.85063 -2.68682 -1.97903 63.37205 7.52724 -4.93456 -47.76121 -12.29278 4.93435 3.58682
-0.21049 -0.05828 0.19528 22.57435 -21.29227 -5.6832 39.63835 3.78858 -8.76905 7.95933 -10.4774 -0.83079 64.67092 11.04833 23.71557 132.86026 99.33882 -26.96478 -6.46661 -43.32669 53.92004 -42.8509 99.69924 -107.8751 -19.26002 9.43052 35.59407 5.85956 -11.07545 -24.81356 -5.85607 -2.64221 -1.95494 64.29477 7.49479 -5.68374 -47.77341 -12.36517 4.95237 3.60134
-0.21175 -0.05879 0.1965 22.86173 -21.87107 -6.10615 39.84399 3.92119 -8.572 8.62512 -10.30386 -0.83079 63.8765 11.03961 22.895 133.87597 98.27214 -24.20083 -6.52194 -42.92929 54.24886 -43.31724 99.85155 -99.72368 -14.94814 8.64482 36.34352 6.10494 -11.81042 -24.78095 -5.861 -2.59824 -1.9312 65.23261 7.44179 -6.45001 -47.79074 -12.44511 4.97244 3.61753
-0.21288 -0.0593 0.19779 23.10541 -22.43473 -6.54118 40.05514 4.03547 -8.33736 9.26048 -9.97199 -0.83079 62.93727 11.04841 21.95647 134.79185 99.17324 -22.16971 -6.91686 -42.59659 54.52257 -43.67226 100.03438 -92.87638 -11.27434 7.97905 37.0731 6.35497 -12.58326 -24.75422 -5.86645 -2.54649 -1.90346 66.13569 7.43647 -7.17234 -47.80014 -12.50508 4.98781 3.62974
-0.2137 -0.0598 0.19925 23.22804 -22.96487 -7.00681 40.28012 4.10862 -8.03798 9.83648 -9.27856 -0.83079 61.63381 11.10957 20.69525 135.41907 105.62034 -22.02058 -8.25634 -42.49826 54.60785 -43.67821 100.28198 -90.35531 -9.69914 7.69043 37.76136 6.62891 -13.39829 -24.74047 -5.87344 -2.48033 -1.86827 66.95085 7.55697 -7.78531 -47.78035 -12.51455 4.99079 3.63146
-0.21439 -0.06029 0.20078 23.30607 -23.4778 -7.48338 40.5089 4.16361 -7.70707 10.38284 -8.43403 -0.83079 60.19414 11.18789 19.32218 135.9375 114.00212 -22.6381 -9.92973 -42.46773 54.63793 -43.57549 100.55991 -89.24325 -8.81793 7.53809 38.4275 6.90823 -14.24424 -24.73242 -5.88096 -2.40705 -1.82944 67.72881 7.72528 -8.35268 -47.75248 -12.50426 4.98899 3.62918
-0.21512 -0.06078 0.20227 23.40333 -23.9934 -7.95425 40.73328 4.22523 -7.39107 10.93964 -7.65195 -0.83079 58.8229 11.25602 18.01084 136.49302 121.38462 -23.01542 -11.43526 -42.39404 54.70557 -43.54347 100.82961 -87.48117 -7.63178 7.34578 39.09693 7.18386 -15.08065 -24.7223 -5.88876 -2.33649 -1.79204 68.5191 7.87351 -8.93528 -47.7308 -12.50238 4.98911 3.62861
-0.21591 -0.06128 0.20377 23.50497 -24.53177 -8.42975 40.9704 4.29289 -7.06633 11.50778 -6.88438 -0.83079 57.41436 11.33413 16.6471 137.10505 129.29608 -22.94946 -13.01458 -42.36623 54.7246 -43.4247 101.0791 -85.65718 -6.35159 7.05392 39.79564 7.4638 -15.90818 -24.71031 -5.89498 -2.26713 -1.75507 69.33048 8.0163 -9.53987 -47.69941 -12.50216 4.99019 3.62842
-0.21655 -0.06177 0.20528 23.58713 -25.01737 -8.89676 41.18077 4.34381 -6.75519 12.04465 -6.05707 -0.83079 56.05754 11.39562 15.37135 137.57206 136.54592 -23.96938 -14.51447 -42.26211 54.82893 -43.45801 101.37529 -84.3352 -5.44984 7.00046 40.42682 7.73611 -16.75587 -24.70345 -5.90376 -2.19402 -1.71656 70.08684 8.1803 -10.08882 -47.68565 -12.49425 4.98826 3.62656
-0.21682 -0.06225 0.20683 23.62357 -25.37212 -9.34772 41.32315 4.35466 -6.48373 12.51672 -5.07946 -0.83079 54.84494 11.40637 14.32941 137.66234 141.62919 -27.9771 -15.74802 -41.92215 55.19772 -43.9563 101.80997 -84.06962 -5.4417 7.62138 40.88902 7.98948 -17.67335 -24.7094 -5.92351 -2.11045 -1.67389 70.71958 8.40227 -10.48784 -47.72655 -12.46777 4.97816 3.62043
-0.21693 -0.06272 0.20839 23.64245 -25.67236 -9.78757 41.43712 4.34909 -6.22897 12.95588 -4.05289 -0.83079 53.69645 11.39993 13.38694 137.61024 145.95371 -33.01813 -16.88329 -41.50595 55.65081 -44.60709 102.28725 -84.27311 -5.79445 8.47042 41.28175 8.23434 -18.60473 -24.72027 -5.94262 -2.02306 -1.62956 71.29454 8.64181 -10.83339 -47.78461 -12.43469 4.96535 3.61287
-0.21711 -0.0632 0.20993 23.67121 -25.99058 -10.22611 41.55945 4.35004 -5.97096 13.40139 -3.06418 -0.83079 52.53988 11.40182 12.42356 137.62462 150.53624 -37.47099 -18.04035 -41.1303 56.05507 -45.17653 102.73356 -84.26644 -5.97717 9.18359 41.69851 8.48123 -19.5145 -24.72884 -5.96256 -1.93973 -1.58715 71.88352 8.8659 -11.20904 -47.83219 -12.40616 4.95448 3.60639
-0.2173 -0.06369 0.21152 23.6904 -26.33689 -10.69283 41.70097 4.35434 -5.69318 13.88296 -2.00238 -0.83079 51.28763 11.40215 11.35446 137.62804 155.55209 -42.45286 -19.30551 -40.72971 56.50268 -45.79563 103.2297 -84.29259 -6.20828 10.03518 42.14659 8.7368 -20.49053 -24.7379 -5.99039 -1.84949 -1.54153 72.52332 9.12301 -11.56073 -47.89103 -12.37046 4.94056 3.598
-0.21744 -0.06414 0.21302 23.72591 -26.61193 -11.0969 41.79592 4.34795 -5.46126 14.28099 -1.08538 -0.83079 50.25411 11.40138 10.52964 137.62156 159.46105 -46.56613 -20.31803 -40.36499 56.87971 -46.3457 103.63211 -84.34594 -6.41582 10.6535 42.51289 8.97124 -21.33084 -24.74701 -5.98889 -1.76889 -1.49994 73.04348 9.31509 -11.94752 -47.93035 -12.34829 4.93226 3.59322
-0.21747 -0.06451 0.21425 23.81178 -26.70383 -11.34011 41.76705 4.31647 -5.34986 14.46507 -0.56306 -0.83079 49.79099 11.40189 10.36385 137.62549 160.47646 -48.03812 -20.65275 -40.09433 57.04909 -46.6942 103.76211 -84.33942 -6.46509 10.54963 42.67284 9.15732 -21.79661 -24.75549 -6.02379 -1.75217 -1.49134 73.25187 9.32156 -12.4657 -47.91408 -12.36553 4.94121 3.59942
-0.21745 -0.06484 0.21537 23.91511 -26.72576 -11.51863 41.69245 4.27472 -5.28456 14.56458 -0.19238 -0.83079 49.55104 11.40165 10.43886 137.62427 160.39708 -48.59158 -20.73556 -39.86726 57.14284 -46.96242 103.79674 -84.3412 -6.47516 10.20681 42.75235 9.32074 -22.12388 -24.76386 -6.01307 -1.74043 -1.48398 73.34093 9.26217 -13.01586 -47.87738 -12.39621 4.95545 3.60903
-0.21746 -0.06518 0.21653 24.00957 -26.77979 -11.72077 41.64046 4.23765 -5.19971 14.69746 0.23598 -0.83079 49.21981 11.40177 10.39905 137.62416 160.82588 -49.55894 -20.93494 -39.63439 57.26696 -47.2521 103.87694 -84.3455 -6.50381 9.98716 42.86739 9.48956 -22.51275 -24.77182 -5.93899 -1.70026 -1.46061 73.48225 9.23368 -13.53941 -47.84815 -12.42108 4.96695 3.61692
-0.21746 -0.06556 0.21775 24.10578 -26.83126 -11.94774 41.58068 4.20035 -5.10963 14.85122 0.71453 -0.83079 48.84291 11.40178 10.38751 137.62459 161.19059 -50.59009 -21.12286 -39.33653 57.41291 -47.61522 103.9492 -84.34002 -6.54473 9.71335 42.98506 9.6795 -22.91021 -24.78141 -6.19616 -1.76272 -1.49782 73.63098 9.20129 -14.11791 -47.82625 -12.44614 4.9809 3.6262
-0.21745 -0.06583 0.21882 24.20466 -26.87135 -12.10673 41.52551 4.1608 -5.04105 14.94099 1.05066 -0.83079 48.61957 11.40137 10.37032 137.62407 161.43083 -51.24123 -21.27532 -39.1894 57.49178 -47.79839 104.01484 -84.35117 -6.54289 9.49344 43.07815 9.81923 -23.2537 -24.78811 -5.78234 -1.62231 -1.41489 73.73529 9.16169 -14.58293 -47.78519 -12.47195 4.98964 3.63249
-0.21742 -0.06581 0.2196 24.29063 -26.90443 -12.10299 41.50415 4.12198 -5.02159 14.88196 1.04119 -0.83079 48.71463 11.40257 10.30006 137.62492 161.63118 -51.1796 -21.39325 -39.41305 57.42543 -47.55499 104.08493 -84.39661 -6.45631 9.47172 43.1312 9.83363 -23.50753 -24.78237 -3.26605 -0.83592 -0.94996 73.75739 9.11254 -14.79031 -47.68531 -12.51522 4.99499 3.63786
-0.21738 -0.06566 0.22023 24.38209 -26.9274 -12.0315 41.48743 4.08049 -5.02184 14.76012 0.89198 -0.83079 48.96733 11.40068 10.21041 137.62367 161.7207 -50.73175 -21.48115 -39.79321 57.28969 -47.1235 104.15154 -84.45755 -6.32166 9.51259 43.16126 9.7966 -23.70712 -24.775 -0.12106 0.14013 -0.37273 73.73643 9.05882 -14.87129 -47.56838 -12.55559 4.99282 3.63872
-0.21733 -0.06556 0.22091 24.48118 -26.95049 -11.985 41.46208 4.03743 -5.01244 14.66267 0.79875 -0.83079 49.17901 11.40148 10.11627 137.6243 161.86674 -50.3939 -21.58617 -40.12556 57.17133 -46.74349 104.21996 -84.51544 -6.19159 9.53013 43.19666 9.77846 -23.91462 -24.77068 2.56036 0.97243 0.11946 73.72892 9.01158 -14.96816 -47.46687 -12.58469 4.98581 3.63613
-0.21732 -0.06552 0.22168 24.53674 -26.98994 -11.96043 41.46213 4.00582 -5.0079 14.58041 0.72954 -0.83079 49.26277 11.40621 10.0905 137.62713 162.03129 -50.33951 -21.68073 -40.36311 57.11044 -46.50236 104.28415 -84.55797 -6.13348 9.51964 43.25016 9.77966 -24.18745 -24.75466 5.97908 2.04288 0.75237 73.74574 8.94574 -15.23956 -47.334 -12.66623 5.01306 3.65633
-0.21723 -0.0653 0.2222 24.68575 -26.99386 -11.87529 41.41163 3.94974 -4.99693 14.45191 0.58223 -0.83079 49.65558 11.39028 9.9099 137.61697 162.04106 -49.56687 -21.77686 -40.83199 56.91398 -45.93081 104.3575 -84.63486 -5.91428 9.58327 43.26232 9.72715 -24.31376 -24.76508 8.02985 2.66827 1.12237 73.69984 8.91553 -15.1195 -47.26052 -12.63916 4.96806 3.62863
-0.21696 -0.06469 0.22215 25.07707 -26.9026 -11.63704 41.21578 3.82819 -4.96669 14.21794 0.22714 -0.83079 50.79568 11.41667 9.34798 137.63456 162.58385 -47.33749 -22.03094 -41.92417 56.36467 -44.47274 104.45837 -84.80997 -5.26472 9.85458 43.16082 9.55141 -24.04423 -24.82965 5.98351 1.96744 0.70861 73.52018 9.01022 -13.92747 -47.37147 -12.30028 4.71667 3.46391
-0.21661 -0.06389 0.22184 25.56499 -26.77637 -11.34121 40.97053 3.68202 -4.92867 13.93853 -0.19591 -0.83079 52.25434 11.4027 8.62405 137.62357 162.83077 -44.33639 -22.26502 -43.23865 55.68188 -42.69373 104.56905 -85.01632 -4.45498 10.1951 43.02055 9.32094 -23.6309 -24.92574 2.56862 0.82151 0.03195 73.2736 9.13683 -12.34976 -47.53836 -11.85462 4.39418 3.25212
